<?xml version="1.0" encoding="utf-8"?>
<!-- Generator: Adobe Illustrator 19.0.0, SVG Export Plug-In . SVG Version: 6.00 Build 0)  -->
<svg xmlns="http://www.w3.org/2000/svg" xmlns:xlink="http://www.w3.org/1999/xlink" version="1.1" id="Layer_1" x="0px" y="0px" viewBox="0 2 98 98" style="enable-background:new 0 2 98 98;" xml:space="preserve" width="512" height="512">
<style type="text/css">
	.st0{fill:url(#SVGID_1_);}
	.st1{fill:url(#SVGID_2_);}
	.st2{fill:url(#SVGID_3_);}
	.st3{fill:url(#SVGID_4_);}
</style>
<g>
	
		<linearGradient id="SVGID_1_" gradientUnits="userSpaceOnUse" x1="53.25" y1="88.6667" x2="53.25" y2="9.9993" gradientTransform="matrix(1 0 0 -1 0 104)">
		<stop offset="0" style="stop-color:#00EFD1"/>
		<stop offset="1" style="stop-color:#00ACEA"/>
	</linearGradient>
	<path class="st0" d="M96,52.8l-5.6-7.2l0,0l-9-17.9c-0.5-1-1.5-1.7-2.7-1.7H65.9v-3c0-1.7-1.3-3-3-3h-50c-1.7,0-3,1.3-3,3   s1.3,3,3,3h47v21c0,1.7,1.3,3,3,3h23.3l4.4,5.6v15.5h-5.7c-1.3-5.2-6-9.1-11.6-9.1S63,65.9,61.7,71.1H43.9c-1.3-5.2-6-9.1-11.6-9.1   S22,65.9,20.7,71.1h-7.8c-1.7,0-3,1.3-3,3s1.3,3,3,3h7.8c1.4,5.1,6,8.9,11.6,8.9s10.2-3.8,11.6-8.9h17.8c1.4,5.1,6,8.9,11.6,8.9   s10.2-3.8,11.6-8.9h8.7c1.7,0,3-1.3,3-3V54.6C96.6,53.9,96.4,53.3,96,52.8z M65.9,32h11l6,12h-17V32z M32.3,80c-3.3,0-6-2.7-6-6   s2.7-6,6-6s6,2.7,6,6S35.6,80,32.3,80z M73.3,80c-3.3,0-6-2.7-6-6s2.7-6,6-6s6,2.7,6,6S76.6,80,73.3,80z"/>
	
		<linearGradient id="SVGID_2_" gradientUnits="userSpaceOnUse" x1="16.2" y1="88.6667" x2="16.2" y2="9.9993" gradientTransform="matrix(1 0 0 -1 0 104)">
		<stop offset="0" style="stop-color:#00EFD1"/>
		<stop offset="1" style="stop-color:#00ACEA"/>
	</linearGradient>
	<path class="st1" d="M26.1,58.9c0-1.7-1.3-3-3-3H9.3c-1.7,0-3,1.3-3,3s1.3,3,3,3h13.8C24.8,61.9,26.1,60.6,26.1,58.9z"/>
	
		<linearGradient id="SVGID_3_" gradientUnits="userSpaceOnUse" x1="17.2" y1="88.6667" x2="17.2" y2="9.9993" gradientTransform="matrix(1 0 0 -1 0 104)">
		<stop offset="0" style="stop-color:#00EFD1"/>
		<stop offset="1" style="stop-color:#00ACEA"/>
	</linearGradient>
	<path class="st2" d="M33,47.1c0-1.7-1.3-3-3-3H4.4c-1.7,0-3,1.3-3,3s1.3,3,3,3H30C31.7,50.1,33,48.8,33,47.1z"/>
	
		<linearGradient id="SVGID_4_" gradientUnits="userSpaceOnUse" x1="22.1" y1="88.6667" x2="22.1" y2="9.9993" gradientTransform="matrix(1 0 0 -1 0 104)">
		<stop offset="0" style="stop-color:#00EFD1"/>
		<stop offset="1" style="stop-color:#00ACEA"/>
	</linearGradient>
	<path class="st3" d="M9.3,38.3h25.6c1.7,0,3-1.3,3-3s-1.3-3-3-3H9.3c-1.7,0-3,1.3-3,3S7.6,38.3,9.3,38.3z"/>
</g>
</svg>
